<svg xmlns="http://www.w3.org/2000/svg" viewBox="0 0 600 72.1" width="600" height="72.1"><path d="M8.5 5.6c.3-2.8 3.8-4.1 10.5-4.1 4 0 7 .6 9.1 1.7.5.2.7.8.7 1.8l-7.7 53.7c-.2.5-.4 1-.4 1.4 0 1.8 1.1 2.6 3.2 2.6h45.7c1.4 0 2.2.3 2.4.8.5.9.6 2.2.3 3.8-.2 1.2-.9 2.6-2 4.1-.3.4-.3.6-.1.6H4.7C1.1 72-.4 69.7.1 65.2 0 65.9 2.8 46 8.5 5.6zm95.6 17.5c0 .1-2.3 15.7-7 46.9-.1.1-.2.3-.3.5-2.6 1-5.6 1.5-8.9 1.5-3.3 0-6.2-.5-8.8-1.6-.2-.1-.3-.3-.3-.4l7-47c.1-.1.2-.3.3-.4 2.6-1.1 5.6-1.6 8.9-1.6 3.4 0 6.4.5 8.9 1.6.1.1.2.3.2.5zm5.9.1c2.5-1.1 5.4-1.6 8.5-1.6 3.2 0 6 .5 8.5 1.6.2.1.4.5.6.9l11.6 33.4L160 23.9c1-1.5 2.8-2.3 5.5-2.3 1.8 0 3.2.3 4.3 1 1.1.7 1.6 1.2 1.3 1.5-.1.3-4.6 7.7-13.3 22.3-8.7 14.6-13.3 22-13.6 22.5-.3.4-1.4 1-3.2 1.8-2.2.9-4.4 1.3-6.9 1.3-2.4 0-4.5-.4-6.4-1.2-1.5-.6-2.3-1.1-2.6-1.6-5-14.7-10-29.5-15.1-44.5-.3-.9-.3-1.4 0-1.5zm117.7 3.1c3.6 1.6 6 4.4 7 8.5.3 1.3.4 2.6.4 3.9 0 2.5-.4 4.7-1.2 6.5-1.8 3.6-4 6-6.6 7.3-3.3 1.6-8.9 2.5-16.6 2.5-.9 0-9 0-24.2.1-.2 1.3-.2 2.3-.2 3.1 0 3.9 1.9 5.8 5.8 5.8h32.6c.3.9.4 1.7.4 2.6 0 2-.6 3.7-1.7 5.2-.2.1-.3.1-.3.1h-35.4c-7.1 0-12.3-1.4-15.4-4.1-3.2-2.7-4.8-7.3-4.8-13.5 0-2.4.2-5.1.7-8.1 1.5-10 5.4-16.5 11.9-19.4 4.4-2.1 12.8-3.1 25.2-3.1 10.6 0 18.1.8 22.4 2.6zm-22.8 5.8c-6.9 0-11.4 1.1-13.6 3.4-1.5 1.6-2.7 5.4-3.6 11.2h15.4c8.8.3 13.7-2.5 14.8-8.3.9-4.2-3.5-6.3-13-6.3zm-99.2-20.6c-2.7 1.2-5.7 1.8-9.1 1.8-3.4 0-6.4-.6-9.1-1.8-.3-.9-.5-1.7-.5-2.5 0-1.3.4-2.5 1.3-3.4 2.7-1.2 5.7-1.7 9-1.7 3.4 0 6.4.6 9.1 1.7.4.7.7 1.4.7 2.2 0 1.1-.5 2.4-1.4 3.7z" fill="#0074BD"/><path d="M320.4 38.5c-3.9 4.4-8.8 7.4-14.8 9.1 6 4.5 9.5 7.2 10.6 8.1 2.4 1.9 3.5 4.2 3.3 6.7-.1 1.9-.3 3.8-.6 5.6-.1.8-.9 1.6-2.2 2.5-1.9 1-4.4 1.6-7.6 1.6-3.3 0-5.9-.4-7.8-1.2-2-.8-2.8-1.6-2.6-2.4.4-2.2.6-4 .8-5.4.3-1.9-.4-3.5-2-5-1.3-1.2-4.6-4-10-8.3h-21c-1.6 11.5-2.4 17.5-2.4 18-.1.7-1 1.5-2.9 2.4-2.3 1.3-5 1.9-8 1.9-3.2 0-5.7-.5-7.4-1.6-1.5-.9-2.1-1.9-2-3 3-20.6 5.8-40.6 8.6-60.1.7-4.1 2.9-6.1 6.7-6.1h42.1c7.6 0 13.8 2 18.4 6 4.7 4 7 9.1 7 15.2 0 5.9-2.1 11.2-6.2 16zm-36.1 2.1c12.9 0 20.1-4.5 21.6-13.4.3-1.8.4-3.5.4-5 0-8.2-4.4-12.2-13.3-12.2h-18.2c-1.6 0-2.7 1.4-3.2 4.1l-3.7 26.5h16.4zm102.2-14.2c3.6 1.6 6 4.4 7 8.5.3 1.3.4 2.6.4 3.9 0 2.5-.4 4.7-1.2 6.5-1.8 3.6-4 6-6.6 7.3-3.3 1.6-8.8 2.5-16.6 2.5-.9 0-9 0-24.2.1-.1 1.3-.2 2.3-.2 3.1 0 3.9 1.9 5.8 5.8 5.8h32.6c.3.9.4 1.7.4 2.6 0 2-.6 3.7-1.7 5.2-.1.1-.3.1-.3.1h-35.4c-7.1 0-12.3-1.4-15.4-4.1-3.2-2.7-4.8-7.3-4.8-13.5 0-2.4.2-5.1.7-8.1 1.5-10 5.4-16.5 11.9-19.4 4.4-2.1 12.8-3.1 25.2-3.1 10.6-.1 18.1.8 22.4 2.6zm-22.8 5.8c-6.9 0-11.4 1.1-13.6 3.4-1.5 1.6-2.7 5.4-3.6 11.2h15.4c8.8.3 13.7-2.5 14.8-8.3.9-4.2-3.4-6.3-13-6.3zm97.8-7.8c.3.8.4 1.7.4 2.5 0 1.8-.6 3.5-1.7 5.1-.1.1-.4.1-.7.1h-40c-2.5 0-4 1.3-4.4 4-.1 1.2.1 2.3.6 3.2.6.9 1.3 1.4 2.4 1.4h27.2c11.4 0 17.1 4 17.1 12 0 .8 0 1.7-.1 2.5-1.7 11.2-8.9 16.7-21.7 16.7H398c-.8 0-1-1.6-.6-4.9.3-2.2 1-3.4 2.2-3.4h41.7c2.7 0 4.4-1.7 4.9-5.2.4-3.4-.8-5-3.7-5h-31.1c-8.7 0-13.1-3.8-13.1-11.4 0-1 .1-2.1.2-3.2 1.3-9.8 10.3-14.7 27.2-14.7H461c0 .1.2.2.5.3zm10.3 43.9c-3-2.7-4.6-6.3-4.6-10.8 0-1 .1-1.9.2-2.9 2.7-19.3 4.1-28.9 4-29 .1-.8.4-1.3.7-1.6 2.7-1.1 5.7-1.7 9-1.7 3.9 0 6.8.6 8.9 1.7.2.1.3.8.1 2l-5.3 34.5v.3c0 1 .7 2.7 2.7 2.7h22.3l5.3-33.5c.4-3 .7-4.5.7-4.6.1-.8.4-1.3.7-1.6 2.7-1.1 5.7-1.7 9-1.7 3.9 0 6.8.6 8.9 1.7.2.1.3.8.1 2-4.1 25.9-6.3 40.1-6.9 43.9-.4 1.4-1.6 2-2.5 2h-43.7c-3.6.2-6.8-1-9.6-3.4zM563.3 2c-1 5-7.7 54.7-9.2 67.9-.2.1-.3.3-.3.4-2.6 1.1-5.6 1.7-8.9 1.7-3.3 0-6.2-.5-8.9-1.6-.2-.1-.2-.3-.2-.6 2.1-12.2 8.4-56.9 9.3-67.8 0-.1.1-.3.2-.4 2.6-1.1 5.6-1.7 9-1.7 3.3 0 6.3.5 8.9 1.6.1.2.1.4.1.5zm36.4 20.4c-.1-.1-.2-.1-.3-.1h-8.2c1.4-10.2 2.6-18.4 3-20.3.1-.1 0-.3-.1-.4-2.6-1-5.6-1.6-8.9-1.6-3.4 0-6.4.6-9 1.7-.2.1-.2.3-.2.4-.3 3.7-1.3 11.3-2.4 20.2h-7.7c-.1 0-.2 0-.3.1-1.1 1.6-1.7 3.3-1.7 5.1 0 .9.1 1.8.3 2.7.1.1.2.1.3.1h8c-2.1 15.6-4.6 32.8-5.8 39.7 0 .2.1.4.2.6 2.7 1 5.6 1.6 8.9 1.6 3.3 0 6.3-.6 8.9-1.7.1-.1.2-.3.3-.4.8-7 3.1-24.3 5.2-39.7h7.8c.1 0 .3-.1.4-.2 1.1-1.5 1.7-3.1 1.7-5-.1-1.1-.2-2-.4-2.8z"/></svg>